HIERARCHY
ROOT Hips
{
	OFFSET 0.00000 0.00000 0.00000
	CHANNELS 6 Xposition Yposition Zposition Zrotation Yrotation Xrotation 
	JOINT LHipJoint
	{
		OFFSET 0 0 0
		CHANNELS 3 Zrotation Yrotation Xrotation
		JOINT LeftHip
		{
			OFFSET 1.41261 -1.82971 0.84908
			CHANNELS 3 Zrotation Yrotation Xrotation
			JOINT LeftKnee
			{
				OFFSET 2.52554 -6.93888 0.00000
				CHANNELS 3 Zrotation Yrotation Xrotation
				JOINT LeftAnkle
				{
					OFFSET 2.56654 -7.05152 0.00000
					CHANNELS 3 Zrotation Yrotation Xrotation
					JOINT LeftToe
					{
						OFFSET 0.21698 -0.59616 1.85369
						CHANNELS 3 Zrotation Yrotation Xrotation
						End Site
						{
							OFFSET 0.00000 -0.00000 0.97832
						}
					}
				}
			}
		}
	}
	JOINT RHipJoint
	{
		OFFSET 0 0 0
		CHANNELS 3 Zrotation Yrotation Xrotation
		JOINT RightHip
		{
			OFFSET -1.12808 -1.82971 0.84907
			CHANNELS 3 Zrotation Yrotation Xrotation
			JOINT RightKnee
			{
				OFFSET -2.53425 -6.96280 0.00000
				CHANNELS 3 Zrotation Yrotation Xrotation
				JOINT RightAnkle
				{
					OFFSET -2.58413 -7.09983 0.00000
					CHANNELS 3 Zrotation Yrotation Xrotation
					JOINT RightToe
					{
						OFFSET -0.26437 -0.72636 1.92241
						CHANNELS 3 Zrotation Yrotation Xrotation
						End Site
						{
							OFFSET -0.00000 -0.00000 1.02667
						}
					}
				}
			}
		}
	}
	JOINT lowerback
	{
		OFFSET 0 0 0
		CHANNELS 3 Zrotation Yrotation Xrotation
		JOINT Chest
		{
			OFFSET -0.02096 2.02288 -0.14752
			CHANNELS 3 Zrotation Yrotation Xrotation
			JOINT Chest2
			{
				OFFSET 0.03477 2.03136 -0.02358
				CHANNELS 3 Zrotation Yrotation Xrotation
				JOINT lowerneck
				{
					OFFSET 0 0 0
					CHANNELS 3 Zrotation Yrotation Xrotation
					JOINT Neck
					{
						OFFSET 0.00174 1.74359 0.19336
						CHANNELS 3 Zrotation Yrotation Xrotation
						JOINT Head
						{
							OFFSET -0.03054 1.76140 -0.17751
							CHANNELS 3 Zrotation Yrotation Xrotation
							End Site
							{
								OFFSET -0.00863 1.77239 -0.08120
							}
						}
					}
				}
				JOINT LeftCollar
				{
					OFFSET 0 0 0
					CHANNELS 3 Zrotation Yrotation Xrotation
					JOINT LeftShoulder
					{
						OFFSET 3.68685 1.32687 -0.67367
CHANNELS 3 Zrotation Xrotation Yrotation
						JOINT LeftElbow
						{
OFFSET 0 -4.764680 -0.000000
CHANNELS 3 Zrotation Xrotation Yrotation
							JOINT LeftWrist
							{
OFFSET 0 -3.527120 -0.000000
CHANNELS 3 Zrotation Xrotation Yrotation
								JOINT lhand
								{
									OFFSET 0 0 0
CHANNELS 3 Zrotation Xrotation Yrotation
									JOINT LFingers
									{
OFFSET 0 -0.859560 -0.000000
CHANNELS 3 Zrotation Xrotation Yrotation
										End Site
										{
OFFSET 0 -0.693000 -0.000000
										}
									}
								}
								JOINT LThumb
								{
OFFSET 0 0.000000 0.000000
CHANNELS 3 Zrotation Xrotation Yrotation
									End Site
									{
OFFSET 0 -0.703580 0.703580
									}
								}
							}
						}
					}
				}
				JOINT RightCollar
				{
					OFFSET 0 0 0
					CHANNELS 3 Zrotation Yrotation Xrotation
					JOINT RightShoulder
					{
						OFFSET -3.31304 1.28268 -0.97357
CHANNELS 3 Zrotation Xrotation Yrotation
						JOINT RightElbow
						{
OFFSET 0 -4.905770 -0.000000
CHANNELS 3 Zrotation Xrotation Yrotation
							JOINT RightWrist
							{
OFFSET 0 -3.426920 0.000000
CHANNELS 3 Zrotation Xrotation Yrotation
								JOINT rhand
								{
									OFFSET 0 0 0
CHANNELS 3 Zrotation Xrotation Yrotation
									JOINT RFingers
									{
OFFSET 0 -0.740960 -0.000000
CHANNELS 3 Zrotation Xrotation Yrotation
										End Site
										{
OFFSET 0 -0.597380 -0.000000
										}
									}
								}
								JOINT RThumb
								{
OFFSET 0 0.000000 0.000000
CHANNELS 3 Zrotation Xrotation Yrotation
									End Site
									{
OFFSET 0 -0.606500 0.606500
									}
								}
							}
						}
					}
				}
			}
		}
	}
}
MOTION
Frames: 7
Frame Time: 0.008333333333333333
1.206000 6.704085 -1.999559 0.608061 0.106042 -31.807314 0.000000 0.000000 0.000000 0.956513 16.266645 -82.471572 33.833812 14.587449 134.355095 -0.327835 -31.136057 -20.323836 0.391146 -4.016082 -11.121946 0.000000 0.000000 0.000000 3.063414 -8.754452 -85.439019 -33.667896 -14.742620 133.699469 -0.624977 10.546407 -14.891398 -2.359770 -9.578151 27.621298 -3.008794 1.983204 37.978608 1.398185 1.501631 10.697438 2.479895 0.653016 -6.872667 0.764903 2.513442 -18.977272 -2.849448 3.429157 4.206601 -0.705181 1.514019 4.340340 0.000000 0.000000 0.000000 -0.516336 -31.590995 -39.416758 68.263041 -58.132148 41.293808 -5.728288 15.916745 11.643517 0.000000 0.000000 0.000000 -7.125000 0.000000 0.000000 -22.572924 18.664178 -15.402246 0.000000 0.000000 0.000000 -11.466677 -37.985902 40.860569 -60.294599 -56.386705 -34.586613 10.679750 8.465381 39.224978 0.000000 0.000000 0.000000 7.125000 0.000000 0.000000 53.563460 61.006592 -24.780309
1.205907 6.705303 -1.996162 0.617480 0.089497 -31.688702 0.000000 0.000000 0.000000 0.938084 16.247253 -82.603196 33.839812 14.581773 134.378894 -0.328441 -31.128446 -20.314546 0.386816 -3.993985 -11.059816 0.000000 0.000000 0.000000 3.094964 -8.730554 -85.579055 -33.674061 -14.736917 133.723726 -0.629747 10.508195 -14.926944 -2.316696 -9.496156 27.360468 -3.047100 1.990828 38.092011 1.381717 1.490663 10.689851 2.484919 0.647821 -6.917649 0.913946 2.536727 -18.908995 -3.016646 3.441891 4.221416 -0.780390 1.512594 4.340869 0.000000 0.000000 0.000000 -0.401916 -31.340460 -39.336044 69.504196 -58.346712 42.349099 -5.203148 15.164783 11.675828 0.000000 0.000000 0.000000 -7.125000 0.000000 0.000000 -22.228552 18.637840 -15.140021 0.000000 0.000000 0.000000 -11.566638 -37.916924 40.848489 -60.849431 -56.530903 -35.049029 10.614333 8.043357 39.396680 0.000000 0.000000 0.000000 7.125000 0.000000 0.000000 53.738520 61.133518 -25.051425
1.205746 6.706705 -1.992603 0.626000 0.080761 -31.563869 0.000000 0.000000 0.000000 0.916407 16.214522 -82.741293 33.845420 14.576489 134.401056 -0.333402 -31.135510 -20.292977 0.379860 -3.958342 -10.959627 0.000000 0.000000 0.000000 3.135406 -8.730824 -85.723192 -33.680801 -14.730662 133.750310 -0.637512 10.466459 -14.990573 -2.264660 -9.396560 27.044047 -3.072066 2.000481 38.201151 1.368128 1.487805 10.685052 2.483032 0.646634 -6.958415 1.042876 2.549345 -18.867259 -3.177876 3.445019 4.246760 -0.851083 1.506123 4.348149 0.000000 0.000000 0.000000 -0.309061 -31.117434 -39.295440 70.704526 -58.542453 43.371699 -4.813014 14.399505 11.642180 0.000000 0.000000 0.000000 -7.125000 0.000000 0.000000 -21.980020 18.670733 -14.923735 0.000000 0.000000 0.000000 -11.684730 -37.867207 40.803949 -61.377286 -56.665172 -35.489581 10.568822 7.639094 39.599000 0.000000 0.000000 0.000000 7.125000 0.000000 0.000000 53.973733 61.274797 -25.379009
1.205468 6.707758 -1.988114 0.616742 0.062924 -31.437953 0.000000 0.000000 0.000000 0.914251 16.215138 -82.888725 33.852848 14.569423 134.430616 -0.336775 -31.146447 -20.283182 0.377048 -3.943807 -10.918735 0.000000 0.000000 0.000000 3.197848 -8.739382 -85.864656 -33.687464 -14.724523 133.776468 -0.643186 10.451137 -15.041189 -2.234701 -9.338638 26.860473 -3.073407 2.008506 38.296504 1.361666 1.492965 10.676496 2.473437 0.649398 -6.999181 1.094344 2.569826 -18.792988 -3.235074 3.466505 4.255604 -0.875764 1.514603 4.342105 0.000000 0.000000 0.000000 -0.197730 -30.912960 -39.277183 71.828440 -58.710463 44.331516 -4.515060 13.739963 11.521464 0.000000 0.000000 0.000000 -7.125000 0.000000 0.000000 -21.802521 18.783993 -14.723174 0.000000 0.000000 0.000000 -11.809561 -37.839412 40.732141 -61.830582 -56.777480 -35.868590 10.530515 7.343241 39.774556 0.000000 0.000000 0.000000 7.125000 0.000000 0.000000 54.181369 61.396478 -25.665808
1.205144 6.708675 -1.983261 0.600511 0.041516 -31.311611 0.000000 0.000000 0.000000 0.919751 16.228834 -83.039818 33.860991 14.561658 134.463078 -0.339525 -31.158903 -20.278005 0.375862 -3.937552 -10.901102 0.000000 0.000000 0.000000 3.268919 -8.751191 -86.005072 -33.694096 -14.718430 133.802459 -0.648039 10.446176 -15.086700 -2.213402 -9.297063 26.729009 -3.065480 2.015894 38.386448 1.357999 1.501269 10.666466 2.460819 0.653712 -7.039947 1.115428 2.593390 -18.705956 -3.251467 3.495192 4.257977 -0.882396 1.528946 4.330835 0.000000 0.000000 0.000000 -0.079153 -30.715763 -39.267693 72.922380 -58.867595 45.266706 -4.253263 13.121895 11.366596 0.000000 0.000000 0.000000 -7.125000 0.000000 0.000000 -21.652884 18.928777 -14.528781 0.000000 0.000000 0.000000 -11.937035 -37.820215 40.649639 -62.254634 -56.881174 -36.223459 10.495033 7.089910 39.939615 0.000000 0.000000 0.000000 7.125000 0.000000 0.000000 54.378189 61.510471 -25.936611
1.204262 6.710570 -1.978641 0.548741 0.025279 -31.212004 0.000000 0.000000 0.000000 0.956877 16.234706 -83.139955 33.868947 14.554126 134.494608 -0.340086 -31.148956 -20.267006 0.372207 -3.918395 -10.847232 0.000000 0.000000 0.000000 3.337381 -8.775809 -86.100168 -33.696537 -14.716156 133.812055 -0.641527 10.498738 -15.038125 -2.260618 -9.388328 27.018233 -3.055364 2.003532 38.464561 1.369051 1.487635 10.663144 2.471443 0.646894 -7.068649 1.110661 2.644435 -18.553203 -3.231250 3.562632 4.237713 -0.870817 1.565181 4.302052 0.000000 0.000000 0.000000 0.067557 -30.502916 -39.211159 73.936579 -58.998504 46.135756 -4.119740 12.663961 11.231431 0.000000 0.000000 0.000000 -7.125000 0.000000 0.000000 -21.583966 19.054976 -14.408726 0.000000 0.000000 0.000000 -12.003167 -37.784157 40.612037 -62.678267 -56.981562 -36.578607 10.476786 6.966576 40.034528 0.000000 0.000000 0.000000 7.125000 0.000000 0.000000 54.494336 61.575233 -26.093857
1.203286 6.712631 -1.974058 0.490803 0.009508 -31.116654 0.000000 0.000000 0.000000 0.999844 16.239899 -83.232061 33.876876 14.546628 134.526001 -0.340304 -31.135963 -20.255465 0.368195 -3.897376 -10.788133 0.000000 0.000000 0.000000 3.406266 -8.802027 -86.187811 -33.698280 -14.714518 133.818925 -0.633281 10.559863 -14.975137 -2.318506 -9.500265 27.372941 -3.044340 1.987908 38.540731 1.382552 1.470583 10.660859 2.485561 0.638341 -7.095446 1.102352 2.699852 -18.389705 -3.205888 3.636163 4.213484 -0.856656 1.604837 4.270349 0.000000 0.000000 0.000000 0.218307 -30.287723 -39.147223 74.936880 -59.124993 46.993256 -4.008247 12.232332 11.099636 0.000000 0.000000 0.000000 -7.125000 0.000000 0.000000 -21.528924 19.177996 -14.301410 0.000000 0.000000 0.000000 -12.059030 -37.744985 40.581646 -63.102400 -57.081520 -36.934282 10.460751 6.864936 40.118194 0.000000 0.000000 0.000000 7.125000 0.000000 0.000000 54.597071 61.632244 -26.232768
